RobotoExtremo-XTRAmin.ufo
<glyph name="numbersign" format="2">
  <advance width="1382"/>
  <unicode hex="0023"/>
  <outline>
    <contour>
      <point x="274.0" y="-20.0" type="line"/>
      <point x="418.0" y="-20.0" type="line"/>
      <point x="815.0" y="1426.0" type="line"/>
      <point x="671.0" y="1426.0" type="line"/>
    </contour>
    <contour>
      <point x="618.0" y="-20.0" type="line"/>
      <point x="762.0" y="-20.0" type="line"/>
      <point x="1158.0" y="1426.0" type="line"/>
      <point x="1014.0" y="1426.0" type="line"/>
    </contour>
    <contour>
      <point x="160.0" y="404.0" type="line"/>
      <point x="1166.0" y="404.0" type="line"/>
      <point x="1166.0" y="542.0" type="line"/>
      <point x="160.0" y="542.0" type="line"/>
    </contour>
    <contour>
      <point x="267.0" y="864.0" type="line"/>
      <point x="1272.0" y="864.0" type="line"/>
      <point x="1272.0" y="1002.0" type="line"/>
      <point x="267.0" y="1002.0" type="line"/>
    </contour>
  </outline>
</glyph>
<glyph name="dollar" format="2">
  <advance width="926"/>
  <unicode hex="0024"/>
  <outline>
    <contour>
      <point x="90.0" y="469.0" type="line" smooth="yes"/>
      <point x="90.0" y="236.0"/>
      <point x="298.0" y="6.0"/>
      <point x="471.0" y="6.0" type="qcurve" smooth="yes"/>
      <point x="639.0" y="6.0"/>
      <point x="846.0" y="237.0"/>
      <point x="846.0" y="450.0" type="qcurve" smooth="yes"/>
      <point x="846.0" y="646.0"/>
      <point x="688.0" y="772.0"/>
      <point x="525.0" y="839.0" type="qcurve" smooth="yes"/>
      <point x="380.0" y="902.0"/>
      <point x="294.0" y="934.0"/>
      <point x="294.0" y="1032.0" type="qcurve" smooth="yes"/>
      <point x="294.0" y="1158.0"/>
      <point x="377.0" y="1282.0"/>
      <point x="464.0" y="1282.0" type="qcurve" smooth="yes"/>
      <point x="552.0" y="1282.0"/>
      <point x="641.0" y="1137.0"/>
      <point x="641.0" y="1003.0" type="qcurve" smooth="yes"/>
      <point x="641.0" y="989.0" type="line"/>
      <point x="825.0" y="989.0" type="line"/>
      <point x="825.0" y="1003.0" type="line" smooth="yes"/>
      <point x="825.0" y="1211.0"/>
      <point x="630.0" y="1458.0"/>
      <point x="464.0" y="1458.0" type="qcurve" smooth="yes"/>
      <point x="312.0" y="1458.0"/>
      <point x="111.0" y="1231.0"/>
      <point x="111.0" y="1032.0" type="qcurve" smooth="yes"/>
      <point x="111.0" y="845.0"/>
      <point x="268.0" y="732.0"/>
      <point x="425.0" y="661.0" type="qcurve" smooth="yes"/>
      <point x="578.0" y="595.0"/>
      <point x="664.0" y="557.0"/>
      <point x="664.0" y="450.0" type="qcurve" smooth="yes"/>
      <point x="664.0" y="321.0"/>
      <point x="569.0" y="184.0"/>
      <point x="471.0" y="184.0" type="qcurve" smooth="yes"/>
      <point x="378.0" y="184.0"/>
      <point x="275.0" y="316.0"/>
      <point x="275.0" y="469.0" type="qcurve" smooth="yes"/>
      <point x="275.0" y="483.0" type="line"/>
      <point x="90.0" y="483.0" type="line"/>
    </contour>
    <contour>
      <point x="398.0" y="-110.0" type="line"/>
      <point x="548.0" y="-110.0" type="line"/>
      <point x="548.0" y="130.0" type="line"/>
      <point x="538.0" y="140.0" type="line"/>
      <point x="538.0" y="668.0" type="line"/>
      <point x="398.0" y="668.0" type="line"/>
    </contour>
    <contour>
      <point x="408.0" y="668.0" type="line"/>
      <point x="548.0" y="668.0" type="line"/>
      <point x="548.0" y="1646.0" type="line"/>
      <point x="398.0" y="1646.0" type="line"/>
      <point x="398.0" y="1306.0" type="line"/>
      <point x="408.0" y="1296.0" type="line"/>
    </contour>
  </outline>
</glyph>
<glyph name="quotesingle" format="2">
  <advance width="400"/>
  <unicode hex="0027"/>
  <outline>
    <contour>
      <point x="125.0" y="966.0" type="line"/>
      <point x="275.0" y="966.0" type="line"/>
      <point x="300.0" y="1320.0" type="line"/>
      <point x="300.0" y="1456.0" type="line"/>
      <point x="100.0" y="1456.0" type="line"/>
      <point x="100.0" y="1320.0" type="line"/>
    </contour>
  </outline>
</glyph>
<glyph name="parenleft" format="2">
  <advance width="700"/>
  <unicode hex="0028"/>
  <outline>
    <contour>
      <point x="529.0" y="-436.0" type="line"/>
      <point x="346.0" y="-330.0"/>
      <point x="124.0" y="120.0"/>
      <point x="124.0" y="515.0" type="qcurve" smooth="yes"/>
      <point x="124.0" y="525.0" type="line" smooth="yes"/>
      <point x="124.0" y="920.0"/>
      <point x="346.0" y="1370.0"/>
      <point x="529.0" y="1476.0" type="qcurve"/>
      <point x="529.0" y="1316.0" type="line"/>
      <point x="430.0" y="1238.0"/>
      <point x="319.0" y="880.0"/>
      <point x="319.0" y="532.0" type="qcurve" smooth="yes"/>
      <point x="319.0" y="508.0" type="line" smooth="yes"/>
      <point x="319.0" y="160.0"/>
      <point x="430.0" y="-198.0"/>
      <point x="529.0" y="-276.0" type="qcurve"/>
    </contour>
  </outline>
</glyph>
<glyph name="parenright" format="2">
  <advance width="700"/>
  <unicode hex="0029"/>
  <outline>
    <contour>
      <point x="171.0" y="-436.0" type="qcurve"/>
      <point x="171.0" y="-276.0" type="line"/>
      <point x="270.0" y="-198.0"/>
      <point x="381.0" y="160.0"/>
      <point x="381.0" y="508.0" type="qcurve" smooth="yes"/>
      <point x="381.0" y="532.0" type="line" smooth="yes"/>
      <point x="381.0" y="880.0"/>
      <point x="270.0" y="1238.0"/>
      <point x="171.0" y="1316.0" type="qcurve"/>
      <point x="171.0" y="1476.0" type="line"/>
      <point x="354.0" y="1370.0"/>
      <point x="576.0" y="920.0"/>
      <point x="576.0" y="525.0" type="qcurve" smooth="yes"/>
      <point x="576.0" y="515.0" type="line" smooth="yes"/>
      <point x="576.0" y="120.0"/>
      <point x="354.0" y="-330.0"/>
    </contour>
  </outline>
</glyph>
<glyph name="zero" format="2">
  <advance width="920"/>
  <unicode hex="0030"/>
  <outline>
    <contour>
      <point x="110.0" y="350.0" type="line" smooth="yes"/>
      <point x="110.0" y="188.0"/>
      <point x="295.0" y="-30.0"/>
      <point x="460.0" y="-30.0" type="qcurve" smooth="yes"/>
      <point x="623.0" y="-30.0"/>
      <point x="810.0" y="188.0"/>
      <point x="810.0" y="350.0" type="qcurve" smooth="yes"/>
      <point x="810.0" y="1106.0" type="line" smooth="yes"/>
      <point x="810.0" y="1272.0"/>
      <point x="623.0" y="1486.0"/>
      <point x="460.0" y="1486.0" type="qcurve" smooth="yes"/>
      <point x="295.0" y="1486.0"/>
      <point x="110.0" y="1272.0"/>
      <point x="110.0" y="1106.0" type="qcurve" smooth="yes"/>
    </contour>
    <contour>
      <point x="305.0" y="340.0" type="qcurve" smooth="yes"/>
      <point x="305.0" y="1116.0" type="line" smooth="yes"/>
      <point x="305.0" y="1203.0"/>
      <point x="380.0" y="1328.0"/>
      <point x="460.0" y="1328.0" type="qcurve" smooth="yes"/>
      <point x="540.0" y="1328.0"/>
      <point x="615.0" y="1203.0"/>
      <point x="615.0" y="1116.0" type="qcurve" smooth="yes"/>
      <point x="615.0" y="340.0" type="line" smooth="yes"/>
      <point x="615.0" y="258.0"/>
      <point x="540.0" y="128.0"/>
      <point x="460.0" y="128.0" type="qcurve" smooth="yes"/>
      <point x="380.0" y="128.0"/>
      <point x="305.0" y="258.0"/>
    </contour>
  </outline>
</glyph>
<glyph name="two" format="2">
  <advance width="920"/>
  <unicode hex="0032"/>
  <outline>
    <contour>
      <point x="110.0" y="0.0" type="line"/>
      <point x="830.0" y="0.0" type="line"/>
      <point x="830.0" y="156.0" type="line"/>
      <point x="301.0" y="156.0" type="line"/>
      <point x="635.0" y="721.0" type="line" smooth="yes"/>
      <point x="728.0" y="878.0"/>
      <point x="800.0" y="1042.0"/>
      <point x="800.0" y="1140.0" type="qcurve" smooth="yes"/>
      <point x="800.0" y="1301.0"/>
      <point x="616.0" y="1486.0"/>
      <point x="466.0" y="1486.0" type="qcurve" smooth="yes"/>
      <point x="316.0" y="1486.0"/>
      <point x="110.0" y="1257.0"/>
      <point x="110.0" y="1030.0" type="qcurve" smooth="yes"/>
      <point x="110.0" y="1020.0" type="line"/>
      <point x="301.0" y="1020.0" type="line"/>
      <point x="301.0" y="1030.0" type="line" smooth="yes"/>
      <point x="301.0" y="1199.0"/>
      <point x="397.0" y="1328.0"/>
      <point x="466.0" y="1328.0" type="qcurve" smooth="yes"/>
      <point x="535.0" y="1328.0"/>
      <point x="610.0" y="1230.0"/>
      <point x="610.0" y="1130.0" type="qcurve" smooth="yes"/>
      <point x="610.0" y="1044.0"/>
      <point x="555.0" y="908.0"/>
      <point x="497.0" y="808.0" type="qcurve" smooth="yes"/>
      <point x="110.0" y="140.0" type="line"/>
    </contour>
  </outline>
</glyph>
<glyph name="five" format="2">
  <advance width="920"/>
  <unicode hex="0035"/>
  <outline>
    <contour>
      <point x="100.0" y="365.0" type="line" smooth="yes"/>
      <point x="100.0" y="195.0"/>
      <point x="295.0" y="-30.0"/>
      <point x="453.0" y="-30.0" type="qcurve" smooth="yes"/>
      <point x="610.0" y="-30.0"/>
      <point x="817.0" y="235.0"/>
      <point x="817.0" y="465.0" type="qcurve" smooth="yes"/>
      <point x="817.0" y="695.0"/>
      <point x="618.0" y="952.0"/>
      <point x="475.0" y="952.0" type="qcurve" smooth="yes"/>
      <point x="434.0" y="952.0"/>
      <point x="363.0" y="931.0"/>
      <point x="326.0" y="909.0" type="qcurve"/>
      <point x="365.0" y="1286.0" type="line"/>
      <point x="760.0" y="1286.0" type="line"/>
      <point x="760.0" y="1456.0" type="line"/>
      <point x="208.0" y="1456.0" type="line"/>
      <point x="138.0" y="730.0" type="line"/>
      <point x="246.0" y="680.0" type="line"/>
      <point x="282.0" y="729.0"/>
      <point x="388.0" y="793.0"/>
      <point x="453.0" y="793.0" type="qcurve" smooth="yes"/>
      <point x="529.0" y="793.0"/>
      <point x="627.0" y="625.0"/>
      <point x="627.0" y="465.0" type="qcurve" smooth="yes"/>
      <point x="627.0" y="305.0"/>
      <point x="529.0" y="128.0"/>
      <point x="453.0" y="128.0" type="qcurve" smooth="yes"/>
      <point x="376.0" y="128.0"/>
      <point x="285.0" y="255.0"/>
      <point x="285.0" y="365.0" type="qcurve" smooth="yes"/>
      <point x="285.0" y="375.0" type="line"/>
      <point x="100.0" y="375.0" type="line"/>
    </contour>
  </outline>
</glyph>
<glyph name="six" format="2">
  <advance width="920"/>
  <unicode hex="0036"/>
  <outline>
    <contour>
      <point x="88.0" y="614.0" type="line" smooth="yes"/>
      <point x="88.0" y="274.0"/>
      <point x="315.0" y="-30.0"/>
      <point x="472.0" y="-30.0" type="qcurve" smooth="yes"/>
      <point x="630.0" y="-30.0"/>
      <point x="835.0" y="244.0"/>
      <point x="835.0" y="464.0" type="qcurve" smooth="yes"/>
      <point x="835.0" y="684.0"/>
      <point x="652.0" y="956.0"/>
      <point x="502.0" y="956.0" type="qcurve" smooth="yes"/>
      <point x="365.0" y="956.0"/>
      <point x="201.0" y="684.0"/>
      <point x="201.0" y="464.0" type="qcurve"/>
      <point x="271.0" y="464.0" type="line"/>
      <point x="271.0" y="624.0"/>
      <point x="393.0" y="798.0"/>
      <point x="472.0" y="798.0" type="qcurve" smooth="yes"/>
      <point x="554.0" y="798.0"/>
      <point x="645.0" y="624.0"/>
      <point x="645.0" y="464.0" type="qcurve" smooth="yes"/>
      <point x="645.0" y="304.0"/>
      <point x="554.0" y="128.0"/>
      <point x="472.0" y="128.0" type="qcurve" smooth="yes"/>
      <point x="388.0" y="128.0"/>
      <point x="277.0" y="344.0"/>
      <point x="277.0" y="604.0" type="qcurve" smooth="yes"/>
      <point x="277.0" y="654.0" type="line" smooth="yes"/>
      <point x="277.0" y="1004.0"/>
      <point x="494.0" y="1328.0"/>
      <point x="682.0" y="1328.0" type="qcurve" smooth="yes"/>
      <point x="697.0" y="1328.0" type="line"/>
      <point x="697.0" y="1486.0" type="line"/>
      <point x="682.0" y="1486.0" type="line" smooth="yes"/>
      <point x="397.0" y="1486.0"/>
      <point x="88.0" y="1024.0"/>
      <point x="88.0" y="644.0" type="qcurve" smooth="yes"/>
    </contour>
  </outline>
</glyph>
<glyph name="seven" format="2">
  <advance width="920"/>
  <unicode hex="0037"/>
  <outline>
    <contour>
      <point x="191.0" y="0.0" type="line"/>
      <point x="387.0" y="0.0" type="line"/>
      <point x="808.0" y="1352.0" type="line"/>
      <point x="808.0" y="1456.0" type="line"/>
      <point x="78.0" y="1456.0" type="line"/>
      <point x="78.0" y="1300.0" type="line"/>
      <point x="615.0" y="1300.0" type="line"/>
    </contour>
  </outline>
</glyph>
<glyph name="eight" format="2">
  <advance width="920"/>
  <unicode hex="0038"/>
  <outline>
    <contour>
      <point x="104.0" y="386.0" type="qcurve" smooth="yes"/>
      <point x="104.0" y="188.0"/>
      <point x="302.0" y="-30.0"/>
      <point x="460.0" y="-30.0" type="qcurve" smooth="yes"/>
      <point x="618.0" y="-30.0"/>
      <point x="815.0" y="188.0"/>
      <point x="815.0" y="386.0" type="qcurve" smooth="yes"/>
      <point x="815.0" y="516.0"/>
      <point x="715.0" y="695.0"/>
      <point x="625.0" y="743.0" type="qcurve"/>
      <point x="625.0" y="747.0" type="line"/>
      <point x="694.0" y="793.0"/>
      <point x="781.0" y="967.0"/>
      <point x="781.0" y="1087.0" type="qcurve" smooth="yes"/>
      <point x="781.0" y="1267.0"/>
      <point x="603.0" y="1486.0"/>
      <point x="460.0" y="1486.0" type="qcurve" smooth="yes"/>
      <point x="317.0" y="1486.0"/>
      <point x="139.0" y="1267.0"/>
      <point x="139.0" y="1087.0" type="qcurve" smooth="yes"/>
      <point x="139.0" y="967.0"/>
      <point x="225.0" y="793.0"/>
      <point x="295.0" y="747.0" type="qcurve"/>
      <point x="295.0" y="743.0" type="line"/>
      <point x="205.0" y="695.0"/>
      <point x="104.0" y="516.0"/>
    </contour>
    <contour>
      <point x="293.0" y="396.0" type="qcurve" smooth="yes"/>
      <point x="293.0" y="516.0"/>
      <point x="374.0" y="666.0"/>
      <point x="460.0" y="666.0" type="qcurve" smooth="yes"/>
      <point x="545.0" y="666.0"/>
      <point x="626.0" y="516.0"/>
      <point x="626.0" y="396.0" type="qcurve" smooth="yes"/>
      <point x="626.0" y="276.0"/>
      <point x="545.0" y="128.0"/>
      <point x="460.0" y="128.0" type="qcurve" smooth="yes"/>
      <point x="374.0" y="128.0"/>
      <point x="293.0" y="276.0"/>
    </contour>
    <contour>
      <point x="323.0" y="1077.0" type="qcurve" smooth="yes"/>
      <point x="323.0" y="1187.0"/>
      <point x="389.0" y="1328.0"/>
      <point x="460.0" y="1328.0" type="qcurve" smooth="yes"/>
      <point x="530.0" y="1328.0"/>
      <point x="597.0" y="1187.0"/>
      <point x="597.0" y="1077.0" type="qcurve" smooth="yes"/>
      <point x="597.0" y="967.0"/>
      <point x="530.0" y="824.0"/>
      <point x="460.0" y="824.0" type="qcurve" smooth="yes"/>
      <point x="389.0" y="824.0"/>
      <point x="323.0" y="967.0"/>
    </contour>
  </outline>
</glyph>
<glyph name="semicolon" format="2">
  <advance width="600"/>
  <unicode hex="003B"/>
  <outline>
    <contour>
      <point x="120.0" y="-218.0" type="qcurve"/>
      <point x="225.0" y="-291.0" type="line"/>
      <point x="304.0" y="-224.0"/>
      <point x="400.0" y="-40.0"/>
      <point x="400.0" y="70.0" type="qcurve" smooth="yes"/>
      <point x="400.0" y="220.0" type="line"/>
      <point x="220.0" y="220.0" type="line"/>
      <point x="220.0" y="70.0" type="line" smooth="yes"/>
      <point x="220.0" y="-20.0"/>
      <point x="168.0" y="-154.0"/>
    </contour>
    <contour>
      <point x="176.0" y="949.0" type="qcurve" smooth="yes"/>
      <point x="176.0" y="900.0"/>
      <point x="240.0" y="830.0"/>
      <point x="300.0" y="830.0" type="qcurve" smooth="yes"/>
      <point x="360.0" y="830.0"/>
      <point x="424.0" y="900.0"/>
      <point x="424.0" y="949.0" type="qcurve" smooth="yes"/>
      <point x="424.0" y="998.0"/>
      <point x="360.0" y="1068.0"/>
      <point x="300.0" y="1068.0" type="qcurve" smooth="yes"/>
      <point x="240.0" y="1068.0"/>
      <point x="176.0" y="998.0"/>
    </contour>
  </outline>
</glyph>
<glyph name="less" format="2">
  <advance width="966"/>
  <unicode hex="003C"/>
  <outline>
    <contour>
      <point x="786.0" y="223.0" type="line"/>
      <point x="172.0" y="602.0" type="line"/>
      <point x="172.0" y="746.0" type="line"/>
      <point x="786.0" y="1125.0" type="line"/>
      <point x="786.0" y="937.0" type="line"/>
      <point x="351.0" y="674.0" type="line"/>
      <point x="786.0" y="411.0" type="line"/>
    </contour>
  </outline>
</glyph>
<glyph name="at" format="2">
  <advance width="1640"/>
  <unicode hex="0040"/>
  <outline>
    <contour>
      <point x="470.0" y="400.0" type="qcurve" smooth="yes"/>
      <point x="470.0" y="220.0"/>
      <point x="604.829694323144" y="0.0"/>
      <point x="719.0" y="0.0" type="qcurve" smooth="yes"/>
      <point x="779.0" y="0.0"/>
      <point x="884.0" y="100.0"/>
      <point x="921.0" y="180.0" type="qcurve"/>
      <point x="951.0" y="100.0"/>
      <point x="1082.0" y="0.0"/>
      <point x="1169.0" y="0.0" type="qcurve" smooth="yes"/>
      <point x="1319.0" y="0.0"/>
      <point x="1526.0" y="360.0"/>
      <point x="1526.0" y="650.0" type="qcurve" smooth="yes"/>
      <point x="1526.0" y="1000.0"/>
      <point x="1154.0" y="1486.0"/>
      <point x="854.0" y="1486.0" type="qcurve" smooth="yes"/>
      <point x="554.0" y="1486.0"/>
      <point x="114.0" y="880.0"/>
      <point x="114.0" y="460.0" type="qcurve" smooth="yes"/>
      <point x="114.0" y="40.0"/>
      <point x="509.0" y="-446.0"/>
      <point x="779.0" y="-446.0" type="qcurve" smooth="yes"/>
      <point x="884.0" y="-446.0"/>
      <point x="1026.0" y="-400.0"/>
      <point x="1079.0" y="-356.0" type="qcurve"/>
      <point x="1079.0" y="-200.0" type="line"/>
      <point x="1029.0" y="-236.0"/>
      <point x="884.0" y="-290.0"/>
      <point x="779.0" y="-290.0" type="qcurve" smooth="yes"/>
      <point x="573.7142857142858" y="-290.0"/>
      <point x="300.0" y="100.0"/>
      <point x="300.0" y="460.0" type="qcurve" smooth="yes"/>
      <point x="300.0" y="820.0"/>
      <point x="618.55" y="1330.0"/>
      <point x="854.0" y="1330.0" type="qcurve" smooth="yes"/>
      <point x="1087.6312849162011" y="1330.0"/>
      <point x="1346.0" y="920.0"/>
      <point x="1346.0" y="650.0" type="qcurve" smooth="yes"/>
      <point x="1346.0" y="420.0"/>
      <point x="1244.5729166666667" y="136.0"/>
      <point x="1164.0" y="136.0" type="qcurve" smooth="yes"/>
      <point x="1125.3103448275863" y="136.0"/>
      <point x="1077.9713688923348" y="230.61039844257238"/>
      <point x="1096.0" y="350.0" type="qcurve" smooth="yes"/>
      <point x="1186.0" y="946.0" type="line"/>
      <point x="1071.0" y="946.0" type="line"/>
      <point x="1034.0" y="985.0"/>
      <point x="921.0" y="1052.0"/>
      <point x="854.0" y="1052.0" type="qcurve" smooth="yes"/>
      <point x="703.1428571428571" y="1052.0"/>
      <point x="470.0" y="680.0"/>
    </contour>
    <contour>
      <point x="660.0" y="400.0" type="qcurve" smooth="yes"/>
      <point x="660.0" y="620.0"/>
      <point x="782.1639344262295" y="912.0"/>
      <point x="876.0" y="912.0" type="qcurve" smooth="yes"/>
      <point x="906.0" y="912.0"/>
      <point x="966.0" y="890.0"/>
      <point x="989.0" y="870.0" type="qcurve"/>
      <point x="914.0" y="390.0" type="line" smooth="yes"/>
      <point x="893.0" y="260.0"/>
      <point x="809.0" y="156.0"/>
      <point x="756.0" y="156.0" type="qcurve" smooth="yes"/>
      <point x="709.5483870967743" y="156.0"/>
      <point x="660.0" y="280.0"/>
    </contour>
  </outline>
</glyph>
<glyph name="G" format="2">
  <advance width="1038"/>
  <unicode hex="0047"/>
  <outline>
    <contour>
      <point x="115.0" y="682.0" type="qcurve" smooth="yes"/>
      <point x="115.0" y="774.0" type="line" smooth="yes"/>
      <point x="115.0" y="1110.0"/>
      <point x="370.0" y="1486.0"/>
      <point x="560.0" y="1486.0" type="qcurve" smooth="yes"/>
      <point x="746.0" y="1486.0"/>
      <point x="958.0" y="1220.0"/>
      <point x="958.0" y="1040.0" type="qcurve" smooth="yes"/>
      <point x="958.0" y="1030.0" type="line"/>
      <point x="766.0" y="1030.0" type="line"/>
      <point x="766.0" y="1040.0" type="line" smooth="yes"/>
      <point x="766.0" y="1140.0"/>
      <point x="661.0" y="1322.0"/>
      <point x="560.0" y="1322.0" type="qcurve" smooth="yes"/>
      <point x="451.0" y="1322.0"/>
      <point x="309.0" y="1030.0"/>
      <point x="309.0" y="774.0" type="qcurve" smooth="yes"/>
      <point x="309.0" y="682.0" type="line" smooth="yes"/>
      <point x="309.0" y="426.0"/>
      <point x="457.0" y="134.0"/>
      <point x="590.0" y="134.0" type="qcurve" smooth="yes"/>
      <point x="649.0" y="134.0"/>
      <point x="729.0" y="160.0"/>
      <point x="772.0" y="190.0" type="qcurve"/>
      <point x="772.0" y="570.0" type="line"/>
      <point x="570.0" y="570.0" type="line"/>
      <point x="570.0" y="728.0" type="line"/>
      <point x="958.0" y="728.0" type="line"/>
      <point x="958.0" y="120.0" type="line"/>
      <point x="905.0" y="66.0"/>
      <point x="723.0" y="-30.0"/>
      <point x="590.0" y="-30.0" type="qcurve" smooth="yes"/>
      <point x="373.0" y="-30.0"/>
      <point x="115.0" y="346.0"/>
    </contour>
  </outline>
</glyph>
<glyph name="L" format="2">
  <advance width="856"/>
  <unicode hex="004C"/>
  <outline>
    <contour>
      <point x="170.0" y="0.0" type="line"/>
      <point x="170.0" y="1456.0" type="line"/>
      <point x="362.0" y="1456.0" type="line"/>
      <point x="362.0" y="158.0" type="line"/>
      <point x="832.0" y="158.0" type="line"/>
      <point x="832.0" y="0.0" type="line"/>
    </contour>
  </outline>
</glyph>
<glyph name="M" format="2">
  <advance width="1389"/>
  <unicode hex="004D"/>
  <outline>
    <contour>
      <point x="170.0" y="0.0" type="line"/>
      <point x="170.0" y="1456.0" type="line"/>
      <point x="438.0" y="1456.0" type="line"/>
      <point x="664.0" y="390.0" type="line" smooth="yes"/>
      <point x="673" y="350"/>
      <point x="689.0" y="280.0"/>
      <point x="691.0" y="230.0" type="qcurve"/>
      <point x="702.0" y="230.0" type="line"/>
      <point x="705.0" y="280.0"/>
      <point x="721" y="350"/>
      <point x="729.0" y="390.0" type="qcurve" smooth="yes"/>
      <point x="953.0" y="1456.0" type="line"/>
      <point x="1219.0" y="1456.0" type="line"/>
      <point x="1219.0" y="0.0" type="line"/>
      <point x="1033.0" y="0.0" type="line"/>
      <point x="1033.0" y="1030.0" type="line" smooth="yes"/>
      <point x="1033.0" y="1070.0"/>
      <point x="1040.0" y="1170.0"/>
      <point x="1044.0" y="1210.0" type="qcurve"/>
      <point x="1029.0" y="1210.0" type="line"/>
      <point x="1025.0" y="1170.0"/>
      <point x="1005" y="1070"/>
      <point x="997.0" y="1030.0" type="qcurve" smooth="yes"/>
      <point x="781.0" y="0.0" type="line"/>
      <point x="611.0" y="0.0" type="line"/>
      <point x="389.0" y="1030.0" type="line" smooth="yes"/>
      <point x="380" y="1070"/>
      <point x="361.0" y="1170.0"/>
      <point x="357.0" y="1210.0" type="qcurve"/>
      <point x="343.0" y="1210.0" type="line"/>
      <point x="347.0" y="1170.0"/>
      <point x="352.0" y="1070.0"/>
      <point x="352.0" y="1030.0" type="qcurve" smooth="yes"/>
      <point x="352.0" y="0.0" type="line"/>
    </contour>
  </outline>
</glyph>
<glyph name="N" format="2">
  <advance width="1154"/>
  <unicode hex="004E"/>
  <anchor x="604.0" y="1432.0" name="top"/>
  <outline>
    <contour>
      <point x="170.0" y="0.0" type="line"/>
      <point x="358.0" y="0.0" type="line"/>
      <point x="358.0" y="930.0" type="line" smooth="yes"/>
      <point x="358.0" y="970.0"/>
      <point x="356.0" y="1045.0"/>
      <point x="354.0" y="1085.0" type="qcurve"/>
      <point x="359.0" y="1085.0" type="line"/>
      <point x="365.0" y="1045.0"/>
      <point x="381.0" y="980.0"/>
      <point x="393.0" y="950.0" type="qcurve" smooth="yes"/>
      <point x="764.0" y="0.0" type="line"/>
      <point x="984.0" y="0.0" type="line"/>
      <point x="984.0" y="1456.0" type="line"/>
      <point x="796.0" y="1456.0" type="line"/>
      <point x="796.0" y="525.0" type="line" smooth="yes"/>
      <point x="796.0" y="485.0"/>
      <point x="798.0" y="410.0"/>
      <point x="800.0" y="370.0" type="qcurve"/>
      <point x="795.0" y="370.0" type="line"/>
      <point x="789.0" y="410.0"/>
      <point x="773.0" y="475.0"/>
      <point x="761.0" y="505.0" type="qcurve" smooth="yes"/>
      <point x="390.0" y="1456.0" type="line"/>
      <point x="170.0" y="1456.0" type="line"/>
    </contour>
  </outline>
</glyph>
<glyph name="R" format="2">
  <advance width="994"/>
  <unicode hex="0052"/>
  <outline>
    <contour>
      <point x="170.0" y="0.0" type="line"/>
      <point x="362.0" y="0.0" type="line"/>
      <point x="362.0" y="594.0" type="line"/>
      <point x="504.0" y="594.0" type="line" smooth="yes"/>
      <point x="690.0491803278688" y="594.0"/>
      <point x="892.0" y="834.0"/>
      <point x="892.0" y="1028.0" type="qcurve" smooth="yes"/>
      <point x="892.0" y="1222.0"/>
      <point x="690.0491803278688" y="1456.0"/>
      <point x="504.0" y="1456.0" type="qcurve" smooth="yes"/>
      <point x="170.0" y="1456.0" type="line"/>
    </contour>
    <contour>
      <point x="362.0" y="750.0" type="line"/>
      <point x="362.0" y="1300.0" type="line"/>
      <point x="504.0" y="1300.0" type="line" smooth="yes"/>
      <point x="613.918918918919" y="1300.0"/>
      <point x="700.0" y="1144.0"/>
      <point x="700.0" y="1028.0" type="qcurve" smooth="yes"/>
      <point x="700.0" y="912.0"/>
      <point x="613.918918918919" y="750.0"/>
      <point x="504.0" y="750.0" type="qcurve" smooth="yes"/>
    </contour>
    <contour>
      <point x="746.0" y="0.0" type="line"/>
      <point x="954.0" y="0.0" type="line"/>
      <point x="680.0" y="672.0" type="line"/>
      <point x="480.0" y="672.0" type="line"/>
    </contour>
  </outline>
</glyph>
<glyph name="U" format="2">
  <advance width="1104"/>
  <unicode hex="0055"/>
  <anchor x="560.0" y="1432.0" name="top"/>
  <outline>
    <contour>
      <point x="155.0" y="470.0" type="qcurve" smooth="yes"/>
      <point x="155.0" y="1456.0" type="line"/>
      <point x="347.0" y="1456.0" type="line"/>
      <point x="347.0" y="470.0" type="line" smooth="yes"/>
      <point x="347.0" y="300.0"/>
      <point x="450.0" y="134.0"/>
      <point x="552.0" y="134.0" type="qcurve" smooth="yes"/>
      <point x="654.0" y="134.0"/>
      <point x="757.0" y="301.0"/>
      <point x="757.0" y="470.0" type="qcurve" smooth="yes"/>
      <point x="757.0" y="1456.0" type="line"/>
      <point x="949.0" y="1456.0" type="line"/>
      <point x="949.0" y="470.0" type="line" smooth="yes"/>
      <point x="949.0" y="220.0"/>
      <point x="728.0" y="-30.0"/>
      <point x="552.0" y="-30.0" type="qcurve" smooth="yes"/>
      <point x="376.0" y="-30.0"/>
      <point x="155.0" y="220.0"/>
    </contour>
  </outline>
</glyph>
<glyph name="W" format="2">
  <advance width="1384"/>
  <unicode hex="0057"/>
  <outline>
    <contour>
      <point x="284.0" y="-10.0" type="line"/>
      <point x="484.0" y="-10.0" type="line"/>
      <point x="677.0" y="1040.0" type="line" smooth="yes"/>
      <point x="684.0" y="1080.0"/>
      <point x="688.0" y="1160.0"/>
      <point x="690.0" y="1198.0" type="qcurve"/>
      <point x="693.0" y="1198.0" type="line"/>
      <point x="695.0" y="1160.0"/>
      <point x="699.0" y="1080.0"/>
      <point x="706.0" y="1040.0" type="qcurve" smooth="yes"/>
      <point x="900.0" y="-10.0" type="line"/>
      <point x="1100.0" y="-10.0" type="line"/>
      <point x="1334.0" y="1456.0" type="line"/>
      <point x="1154.0" y="1456.0" type="line"/>
      <point x="1011.0" y="420.0" type="line" smooth="yes"/>
      <point x="1005.0" y="380.0"/>
      <point x="1002.0" y="290.0"/>
      <point x="1000.0" y="250.0" type="qcurve"/>
      <point x="996.0" y="250.0" type="line"/>
      <point x="994.0" y="290.0"/>
      <point x="992.0" y="380.0"/>
      <point x="985.0" y="420.0" type="qcurve" smooth="yes"/>
      <point x="794.0" y="1456.0" type="line"/>
      <point x="590.0" y="1456.0" type="line"/>
      <point x="405.0" y="420.0" type="line" smooth="yes"/>
      <point x="398.0" y="380.0"/>
      <point x="396.0" y="290.0"/>
      <point x="394.0" y="250.0" type="qcurve"/>
      <point x="390.0" y="250.0" type="line"/>
      <point x="388.0" y="290.0"/>
      <point x="385.0" y="380.0"/>
      <point x="379.0" y="420.0" type="qcurve" smooth="yes"/>
      <point x="230.0" y="1456.0" type="line"/>
      <point x="50.0" y="1456.0" type="line"/>
    </contour>
  </outline>
</glyph>
<glyph name="backslash" format="2">
  <advance width="388"/>
  <unicode hex="005C"/>
  <outline>
    <contour>
      <point x="-100.0" y="1456.0" type="line"/>
      <point x="319.0" y="-125.0" type="line"/>
      <point x="488.0" y="-125.0" type="line"/>
      <point x="70.0" y="1456.0" type="line"/>
    </contour>
  </outline>
</glyph>
<glyph name="asciicircum" format="2">
  <advance width="890"/>
  <unicode hex="005E"/>
  <outline>
    <contour>
      <point x="25.0" y="720.0" type="line"/>
      <point x="225.0" y="720.0" type="line"/>
      <point x="445.0" y="1253.0" type="line"/>
      <point x="665.0" y="720.0" type="line"/>
      <point x="865.0" y="720.0" type="line"/>
      <point x="530.0" y="1456.0" type="line"/>
      <point x="360.0" y="1456.0" type="line"/>
    </contour>
  </outline>
</glyph>
<glyph name="a" format="2">
  <advance width="869"/>
  <unicode hex="0061"/>
  <anchor x="442.0" y="1052.0" name="top"/>
  <outline>
    <contour>
      <point x="90.0" y="310.0" type="qcurve" smooth="yes"/>
      <point x="90.0" y="150.0"/>
      <point x="245.0" y="-20.0"/>
      <point x="356.0" y="-20.0" type="qcurve" smooth="yes"/>
      <point x="434.0731707317073" y="-20.0"/>
      <point x="531.5638955536625" y="61.58070369919652"/>
      <point x="554.0" y="115.0" type="qcurve"/>
      <point x="558.0" y="83.0"/>
      <point x="574.7830516720745" y="20.94760983619426"/>
      <point x="584.0" y="0.0" type="qcurve"/>
      <point x="765.0" y="0.0" type="line"/>
      <point x="765.0" y="16.0" type="line"/>
      <point x="752.0" y="60.0"/>
      <point x="737.0" y="175.0"/>
      <point x="737.0" y="240.0" type="qcurve" smooth="yes"/>
      <point x="737.0" y="720.0" type="line" smooth="yes"/>
      <point x="737.0" y="900.0"/>
      <point x="582.0" y="1082.0"/>
      <point x="442.0" y="1082.0" type="qcurve" smooth="yes"/>
      <point x="301.0" y="1082.0"/>
      <point x="136.0" y="895.0"/>
      <point x="136.0" y="770.0" type="qcurve" smooth="yes"/>
      <point x="136.0" y="765.0" type="line"/>
      <point x="321.0" y="765.0" type="line"/>
      <point x="321.0" y="770.0" type="line" smooth="yes"/>
      <point x="321.0" y="835.0"/>
      <point x="374.8909090909091" y="934.0"/>
      <point x="438.0" y="934.0" type="qcurve" smooth="yes"/>
      <point x="500.46583850931677" y="934.0"/>
      <point x="551.0" y="815.0"/>
      <point x="551.0" y="720.0" type="qcurve" smooth="yes"/>
      <point x="551.0" y="648.0" type="line"/>
      <point x="423.0" y="648.0" type="line" smooth="yes"/>
      <point x="278.0" y="648.0"/>
      <point x="90.0" y="470.0"/>
    </contour>
    <contour>
      <point x="276.0" y="320.0" type="qcurve" smooth="yes"/>
      <point x="276.0" y="410.0"/>
      <point x="357.7714285714286" y="516.0"/>
      <point x="438.0" y="516.0" type="qcurve" smooth="yes"/>
      <point x="551.0" y="516.0" type="line"/>
      <point x="551.0" y="325.0" type="line"/>
      <point x="551.0" y="254.0"/>
      <point x="448.7464788732394" y="128.0"/>
      <point x="386.0" y="128.0" type="qcurve" smooth="yes"/>
      <point x="329.6075949367089" y="128.0"/>
      <point x="276.0" y="230.0"/>
    </contour>
  </outline>
</glyph>
<glyph name="c" format="2">
  <advance width="796"/>
  <unicode hex="0063"/>
  <anchor x="444.0" y="0" name="bottom"/>
  <outline>
    <contour>
      <point x="85.0" y="510.0" type="line" smooth="yes"/>
      <point x="85.0" y="272.0"/>
      <point x="277.0" y="-30.0"/>
      <point x="445.0" y="-30.0" type="qcurve" smooth="yes"/>
      <point x="600.0" y="-30.0"/>
      <point x="761.0" y="197.0"/>
      <point x="761.0" y="337.0" type="qcurve" smooth="yes"/>
      <point x="761.0" y="342.0" type="line"/>
      <point x="581.0" y="342.0" type="line"/>
      <point x="581.0" y="337.0" type="line" smooth="yes"/>
      <point x="581.0" y="252.0"/>
      <point x="516.3442622950819" y="122.0"/>
      <point x="445.0" y="122.0" type="qcurve" smooth="yes"/>
      <point x="357.283105022831" y="122.0"/>
      <point x="275.0" y="347.0"/>
      <point x="275.0" y="510.0" type="qcurve" smooth="yes"/>
      <point x="275.0" y="542.0" type="line" smooth="yes"/>
      <point x="275.0" y="705.0"/>
      <point x="357.283105022831" y="930.0"/>
      <point x="445.0" y="930.0" type="qcurve" smooth="yes"/>
      <point x="516.3442622950819" y="930.0"/>
      <point x="581.0" y="800.0"/>
      <point x="581.0" y="715.0" type="qcurve" smooth="yes"/>
      <point x="581.0" y="710.0" type="line"/>
      <point x="761.0" y="710.0" type="line"/>
      <point x="761.0" y="715.0" type="line" smooth="yes"/>
      <point x="761.0" y="855.0"/>
      <point x="600.0" y="1082.0"/>
      <point x="445.0" y="1082.0" type="qcurve" smooth="yes"/>
      <point x="277.0" y="1082.0"/>
      <point x="85.0" y="780.0"/>
      <point x="85.0" y="542.0" type="qcurve" smooth="yes"/>
    </contour>
  </outline>
</glyph>
<glyph name="e" format="2">
  <advance width="828"/>
  <unicode hex="0065"/>
  <anchor x="437.0" y="1053.0" name="top"/>
  <outline>
    <contour>
      <point x="85.0" y="510.0" type="line" smooth="yes"/>
      <point x="85.0" y="272.0"/>
      <point x="278.0" y="-30.0"/>
      <point x="459.0" y="-30.0" type="qcurve" smooth="yes"/>
      <point x="570.0" y="-30.0"/>
      <point x="725.0" y="100.0"/>
      <point x="762.0" y="175.0" type="qcurve"/>
      <point x="635.0" y="270.0" type="line"/>
      <point x="604.0" y="212.0"/>
      <point x="519.8598130841121" y="122.0"/>
      <point x="459.0" y="122.0" type="qcurve" smooth="yes"/>
      <point x="362.47210300429185" y="122.0"/>
      <point x="270.0" y="347.0"/>
      <point x="270.0" y="510.0" type="qcurve" smooth="yes"/>
      <point x="270.0" y="542.0" type="line" smooth="yes"/>
      <point x="270.0" y="705.0"/>
      <point x="355.478672985782" y="930.0"/>
      <point x="437.0" y="930.0" type="qcurve" smooth="yes"/>
      <point x="516.9157894736843" y="930.0"/>
      <point x="583.0" y="760.0"/>
      <point x="583.0" y="632.0" type="qcurve"/>
      <point x="583.0" y="632.0" type="line"/>
      <point x="180.0" y="632.0" type="line"/>
      <point x="180.0" y="484.0" type="line"/>
      <point x="768.0" y="484.0" type="line"/>
      <point x="768.0" y="560.0" type="line" smooth="yes"/>
      <point x="768.0" y="800.0"/>
      <point x="596.0" y="1082.0"/>
      <point x="437.0" y="1082.0" type="qcurve" smooth="yes"/>
      <point x="278.0" y="1082.0"/>
      <point x="85.0" y="780.0"/>
      <point x="85.0" y="542.0" type="qcurve" smooth="yes"/>
    </contour>
  </outline>
</glyph>
<glyph name="f" format="2">
  <advance width="448"/>
  <unicode hex="0066"/>
  <outline>
    <contour>
      <point x="128.0" y="0.0" type="line"/>
      <point x="128.0" y="1200.0" type="line" smooth="yes"/>
      <point x="128.0" y="1374.0"/>
      <point x="280.82442748091603" y="1556.0"/>
      <point x="414.0" y="1556.0" type="qcurve" smooth="yes"/>
      <point x="437.0" y="1556.0"/>
      <point x="486.0" y="1548.0"/>
      <point x="508.0" y="1540.0" type="qcurve"/>
      <point x="501.0" y="1390.0" type="line"/>
      <point x="485.0" y="1394.0"/>
      <point x="448.0" y="1400.0"/>
      <point x="428.0" y="1400.0" type="qcurve" smooth="yes"/>
      <point x="373.8705035971223" y="1400.0"/>
      <point x="314.0" y="1300.0"/>
      <point x="314.0" y="1200.0" type="qcurve" smooth="yes"/>
      <point x="314.0" y="992.0" type="line"/>
      <point x="314.0" y="970.0" type="line"/>
      <point x="314.0" y="0.0" type="line"/>
    </contour>
    <contour>
      <point x="25.0" y="910.0" type="line"/>
      <point x="25.0" y="1052.0" type="line"/>
      <point x="203.0" y="1052.0" type="line"/>
      <point x="237.0" y="1052.0" type="line"/>
      <point x="458.0" y="1052.0" type="line"/>
      <point x="458.0" y="910.0" type="line"/>
    </contour>
  </outline>
</glyph>
<glyph name="g" format="2">
  <advance width="926"/>
  <unicode hex="0067"/>
  <outline>
    <contour>
      <point x="114.0" y="-284.0" type="line"/>
      <point x="170.0" y="-350.0"/>
      <point x="333.0" y="-436.0"/>
      <point x="429.0" y="-436.0" type="qcurve" smooth="yes"/>
      <point x="585.0" y="-436.0"/>
      <point x="778.0" y="-200.0"/>
      <point x="778.0" y="20.0" type="qcurve" smooth="yes"/>
      <point x="778.0" y="1052.0" type="line"/>
      <point x="606.0" y="1052.0" type="line"/>
      <point x="600.0" y="945.0" type="line"/>
      <point x="595.0" y="945.0" type="line"/>
      <point x="570.0" y="1000.0"/>
      <point x="462.0" y="1072.0"/>
      <point x="390.0" y="1072.0" type="qcurve" smooth="yes"/>
      <point x="251.0" y="1072.0"/>
      <point x="85.0" y="772.0"/>
      <point x="85.0" y="542.0" type="qcurve" smooth="yes"/>
      <point x="85.0" y="510.0" type="line" smooth="yes"/>
      <point x="85.0" y="280.0"/>
      <point x="251.0" y="-20.0"/>
      <point x="390.0" y="-20.0" type="qcurve" smooth="yes"/>
      <point x="462.0" y="-20.0"/>
      <point x="563.0" y="40.0"/>
      <point x="592.0" y="94.0" type="qcurve"/>
      <point x="592.0" y="20.0" type="line" smooth="yes"/>
      <point x="592.0" y="-120.0"/>
      <point x="502.3148148148148" y="-274.0"/>
      <point x="425.0" y="-274.0" type="qcurve" smooth="yes"/>
      <point x="357.5777777777778" y="-274.0"/>
      <point x="252.1621477932912" y="-193.7051374987228"/>
      <point x="220.0" y="-144.0" type="qcurve"/>
    </contour>
    <contour>
      <point x="275.0" y="510.0" type="qcurve" smooth="yes"/>
      <point x="275.0" y="542.0" type="line" smooth="yes"/>
      <point x="275.0" y="702.0"/>
      <point x="355.0" y="920.0"/>
      <point x="440.0" y="920.0" type="qcurve" smooth="yes"/>
      <point x="496.0" y="920.0"/>
      <point x="573.0" y="835.0"/>
      <point x="592.0" y="780.0" type="qcurve"/>
      <point x="592.0" y="272.0" type="line"/>
      <point x="573.0" y="217.0"/>
      <point x="496.0" y="132.0"/>
      <point x="440.0" y="132.0" type="qcurve" smooth="yes"/>
      <point x="355.0" y="132.0"/>
      <point x="275.0" y="350.0"/>
    </contour>
  </outline>
</glyph>
<glyph name="k" format="2">
  <advance width="795"/>
  <unicode hex="006B"/>
  <outline>
    <contour>
      <point x="148.0" y="0.0" type="line"/>
      <point x="148.0" y="1536.0" type="line"/>
      <point x="334.0" y="1536.0" type="line"/>
      <point x="334.0" y="610.0" type="line"/>
      <point x="597.0" y="1052.0" type="line"/>
      <point x="780.0" y="1052.0" type="line"/>
      <point x="334.0" y="378.0" type="line"/>
      <point x="334.0" y="0.0" type="line"/>
    </contour>
    <contour>
      <point x="605.0" y="0.0" type="line"/>
      <point x="372.0" y="535.0" type="line"/>
      <point x="458.0" y="692.0" type="line"/>
      <point x="811.0" y="0.0" type="line"/>
    </contour>
  </outline>
</glyph>
<glyph name="m" format="2">
  <advance width="1320"/>
  <unicode hex="006D"/>
  <outline>
    <contour>
      <point x="148.0" y="0.0" type="line"/>
      <point x="334.0" y="0.0" type="line"/>
      <point x="334.0" y="774.0" type="line"/>
      <point x="357.0" y="837.0"/>
      <point x="423.0" y="916.0"/>
      <point x="470.0" y="916.0" type="qcurve" smooth="yes"/>
      <point x="519.0" y="916.0"/>
      <point x="570.0" y="821.0"/>
      <point x="572.0" y="711.0" type="qcurve" smooth="yes"/>
      <point x="572.0" y="0.0" type="line"/>
      <point x="758.0" y="0.0" type="line"/>
      <point x="758.0" y="774.0" type="line"/>
      <point x="781.0" y="837.0"/>
      <point x="847.0" y="916.0"/>
      <point x="894.0" y="916.0" type="qcurve" smooth="yes"/>
      <point x="943.0" y="916.0"/>
      <point x="994.0" y="821.0"/>
      <point x="996.0" y="711.0" type="qcurve" smooth="yes"/>
      <point x="996.0" y="0.0" type="line"/>
      <point x="1182.0" y="0.0" type="line"/>
      <point x="1182.0" y="709.0" type="line" smooth="yes"/>
      <point x="1182.0" y="905.0"/>
      <point x="1059.0" y="1072.0"/>
      <point x="955.0" y="1072.0" type="qcurve" smooth="yes"/>
      <point x="875.0" y="1072.0"/>
      <point x="760.0" y="976.0"/>
      <point x="734.0" y="904.0" type="qcurve"/>
      <point x="730.0" y="904.0" type="line"/>
      <point x="704.0" y="988.0"/>
      <point x="605.0" y="1072.0"/>
      <point x="531.0" y="1072.0" type="qcurve" smooth="yes"/>
      <point x="469.0" y="1072.0"/>
      <point x="366.0" y="1007.0"/>
      <point x="331.0" y="947.0" type="qcurve"/>
      <point x="326.0" y="947.0" type="line"/>
      <point x="320.0" y="1052.0" type="line"/>
      <point x="148.0" y="1052.0" type="line"/>
    </contour>
  </outline>
</glyph>
<glyph name="n" format="2">
  <advance width="916"/>
  <unicode hex="006E"/>
  <anchor x="518.0" y="1052.0" name="top"/>
  <outline>
    <contour>
      <point x="148.0" y="0.0" type="line"/>
      <point x="334.0" y="0.0" type="line"/>
      <point x="334.0" y="774.0" type="line"/>
      <point x="356.8942480367199" y="836.7471983228619"/>
      <point x="430.3298969072165" y="916.0"/>
      <point x="480.0" y="916.0" type="qcurve" smooth="yes"/>
      <point x="533.5652173913044" y="916.0"/>
      <point x="592.0" y="820.9148936170213"/>
      <point x="592.0" y="711.0" type="qcurve" smooth="yes"/>
      <point x="592.0" y="0.0" type="line"/>
      <point x="778.0" y="0.0" type="line"/>
      <point x="778.0" y="709.0" type="line" smooth="yes"/>
      <point x="778.0" y="904.8167938931299"/>
      <point x="649.8171206225682" y="1072.0"/>
      <point x="541.0" y="1072.0" type="qcurve" smooth="yes"/>
      <point x="475.7894736842105" y="1072.0"/>
      <point x="366.2800052087702" y="1007.8580089851287"/>
      <point x="331.0" y="947.0" type="qcurve"/>
      <point x="326.0" y="947.0" type="line"/>
      <point x="320.0" y="1052.0" type="line"/>
      <point x="148.0" y="1052.0" type="line"/>
    </contour>
  </outline>
</glyph>
<glyph name="v" format="2">
  <advance width="696"/>
  <unicode hex="0076"/>
  <outline>
    <contour>
      <point x="0.0" y="1052.0" type="line"/>
      <point x="178.0" y="1052.0" type="line"/>
      <point x="324.0" y="380.0" type="line" smooth="yes"/>
      <point x="333" y="340"/>
      <point x="344.0" y="260.0"/>
      <point x="348.0" y="220.0" type="qcurve"/>
      <point x="352.0" y="220.0" type="line"/>
      <point x="356.0" y="260.0"/>
      <point x="367" y="340"/>
      <point x="376.0" y="380.0" type="qcurve" smooth="yes"/>
      <point x="522.0" y="1052.0" type="line"/>
      <point x="696.0" y="1052.0" type="line"/>
      <point x="424.0" y="0.0" type="line"/>
      <point x="272.0" y="0.0" type="line"/>
    </contour>
  </outline>
</glyph>
<glyph name="w" format="2">
  <advance width="1156"/>
  <unicode hex="0077"/>
  <outline>
    <contour>
      <point x="25.0" y="1052.0" type="line"/>
      <point x="205.0" y="1052.0" type="line"/>
      <point x="300.0" y="380.0" type="line" smooth="yes"/>
      <point x="306" y="340"/>
      <point x="322.0" y="250.0"/>
      <point x="322.0" y="210.0" type="qcurve"/>
      <point x="328.0" y="210.0" type="line"/>
      <point x="329.0" y="250.0"/>
      <point x="344" y="340"/>
      <point x="354.0" y="380.0" type="qcurve" smooth="yes"/>
      <point x="515.0" y="1052.0" type="line"/>
      <point x="647.0" y="1052.0" type="line"/>
      <point x="808.0" y="380.0" type="line" smooth="yes"/>
      <point x="818" y="340"/>
      <point x="832.0" y="250.0"/>
      <point x="834.0" y="210.0" type="qcurve"/>
      <point x="840.0" y="210.0" type="line"/>
      <point x="840.0" y="250.0"/>
      <point x="856" y="340"/>
      <point x="862.0" y="380.0" type="qcurve" smooth="yes"/>
      <point x="956.0" y="1052.0" type="line"/>
      <point x="1131.0" y="1052.0" type="line"/>
      <point x="910.0" y="0.0" type="line"/>
      <point x="772.0" y="0.0" type="line"/>
      <point x="608.0" y="660.0" type="line" smooth="yes"/>
      <point x="598" y="700"/>
      <point x="586.0" y="780.0"/>
      <point x="580.0" y="820.0" type="qcurve"/>
      <point x="576.0" y="820.0" type="line"/>
      <point x="570.0" y="780.0"/>
      <point x="558" y="700"/>
      <point x="548.0" y="660.0" type="qcurve" smooth="yes"/>
      <point x="384.0" y="0.0" type="line"/>
      <point x="246.0" y="0.0" type="line"/>
    </contour>
  </outline>
</glyph>
<glyph name="x" format="2">
  <advance width="734"/>
  <unicode hex="0078"/>
  <outline>
    <contour>
      <point x="20.0" y="0.0" type="line"/>
      <point x="205.0" y="0.0" type="line"/>
      <point x="410.0" y="484.0" type="line"/>
      <point x="428.0" y="484.0" type="line"/>
      <point x="699.0" y="1052.0" type="line"/>
      <point x="514.0" y="1052.0" type="line"/>
      <point x="314.0" y="582.0" type="line"/>
      <point x="296.0" y="582.0" type="line"/>
    </contour>
    <contour>
      <point x="35.0" y="1052.0" type="line"/>
      <point x="306.0" y="484.0" type="line"/>
      <point x="322.0" y="484.0" type="line"/>
      <point x="527.0" y="0.0" type="line"/>
      <point x="714.0" y="0.0" type="line"/>
      <point x="438.0" y="582.0" type="line"/>
      <point x="422.0" y="582.0" type="line"/>
      <point x="222.0" y="1052.0" type="line"/>
    </contour>
  </outline>
</glyph>
<glyph name="y" format="2">
  <advance width="706"/>
  <unicode hex="0079"/>
  <anchor x="361.0" y="1052.0" name="top"/>
  <outline>
    <contour>
      <point x="40.0" y="-416.0" type="line"/>
      <point x="60.0" y="-426.0"/>
      <point x="106.0" y="-436.0"/>
      <point x="136.0" y="-436.0" type="qcurve" smooth="yes"/>
      <point x="229.0" y="-436.0"/>
      <point x="360.0" y="-280.0"/>
      <point x="396.0" y="-140.0" type="qcurve" smooth="yes"/>
      <point x="706.0" y="1052.0" type="line"/>
      <point x="536.0" y="1052.0" type="line"/>
      <point x="386.0" y="400.0" type="line" smooth="yes"/>
      <point x="377.0" y="360.0"/>
      <point x="366.0" y="280.0"/>
      <point x="362.0" y="240.0" type="qcurve"/>
      <point x="358.0" y="240.0" type="line"/>
      <point x="354.0" y="280.0"/>
      <point x="343.0" y="360.0"/>
      <point x="334.0" y="400.0" type="qcurve" smooth="yes"/>
      <point x="184.0" y="1052.0" type="line"/>
      <point x="10.0" y="1052.0" type="line"/>
      <point x="282.0" y="10.0" type="line"/>
      <point x="253.0" y="-100.0" type="line" smooth="yes"/>
      <point x="227.0" y="-199.0"/>
      <point x="173.0" y="-276.0"/>
      <point x="128.0" y="-276.0" type="qcurve" smooth="yes"/>
      <point x="106.0" y="-276.0"/>
      <point x="59.0" y="-266.0"/>
      <point x="40.0" y="-258.0" type="qcurve"/>
    </contour>
  </outline>
</glyph>
<glyph name="asciitilde" format="2">
  <advance width="963"/>
  <unicode hex="007E"/>
  <outline>
    <contour>
      <point x="45.0" y="532.0" type="line"/>
      <point x="92.0" y="592.0"/>
      <point x="224.0" y="659.0"/>
      <point x="281.0" y="659.0" type="qcurve" smooth="yes"/>
      <point x="351.0" y="659.0"/>
      <point x="434.0" y="618.0"/>
      <point x="489.0" y="586.0" type="qcurve" smooth="yes"/>
      <point x="540.0" y="556.0"/>
      <point x="616.0" y="517.0"/>
      <point x="682.0" y="517.0" type="qcurve" smooth="yes"/>
      <point x="739.0" y="517.0"/>
      <point x="871.0" y="575.0"/>
      <point x="918.0" y="626.0" type="qcurve"/>
      <point x="918.0" y="829.0" type="line"/>
      <point x="871.0" y="769.0"/>
      <point x="738.0" y="701.0"/>
      <point x="681.0" y="701.0" type="qcurve" smooth="yes"/>
      <point x="615.0" y="701.0"/>
      <point x="540.0" y="738.0"/>
      <point x="488.0" y="770.0" type="qcurve" smooth="yes"/>
      <point x="433.0" y="804.0"/>
      <point x="351.0" y="844.0"/>
      <point x="281.0" y="843.0" type="qcurve" smooth="yes"/>
      <point x="224.0" y="842.0"/>
      <point x="92.0" y="785.0"/>
      <point x="45.0" y="734.0" type="qcurve"/>
    </contour>
  </outline>
</glyph>
<glyph name="rightanglebracket" format="2">
  <advance width="700"/>
  <unicode hex="27E9"/>
  <outline>
    <contour>
      <point x="-16.0" y="-218.0" type="line"/>
      <point x="508.0" y="591.0" type="line"/>
      <point x="-15.0" y="1414.0" type="line"/>
      <point x="97.0" y="1499.0" type="line"/>
      <point x="699.0" y="659.0" type="line"/>
      <point x="699.0" y="530.0" type="line"/>
      <point x="97.0" y="-304.0" type="line"/>
    </contour>
  </outline>
</glyph>
